<?xml version="1.0" standalone="no"?>
<!DOCTYPE svg PUBLIC "-//W3C//DTD SVG 20010904//EN"
 "http://www.w3.org/TR/2001/REC-SVG-20010904/DTD/svg10.dtd">
<svg version="1.0" xmlns="http://www.w3.org/2000/svg"
 width="200.000000pt" height="50.000000pt" viewBox="0 0 200.000000 50.000000"
 preserveAspectRatio="xMidYMid meet">

<g transform="translate(0.000000,50.000000) scale(0.100000,-0.100000)"
fill="#000000" stroke="none">
<path d="M66 354 c-9 -8 -16 -28 -16 -43 0 -15 -5 -32 -12 -39 -9 -9 -9 -15 0
-24 7 -7 12 -26 12 -43 0 -37 16 -55 47 -55 26 0 30 17 9 34 -24 19 -25 126
-1 150 8 8 15 19 15 25 0 16 -36 13 -54 -5z"/>
<path d="M162 280 c-41 -90 -41 -90 -17 -90 15 0 26 7 30 20 9 29 77 28 97 -1
7 -12 21 -20 30 -18 14 3 11 17 -24 92 -28 59 -46 87 -58 87 -12 0 -30 -28
-58 -90z m76 5 c11 -23 10 -25 -14 -25 -20 0 -25 4 -20 16 3 9 6 20 6 25 0 18
17 8 28 -16z"/>
<path d="M330 280 c0 -83 2 -90 19 -90 17 0 20 8 23 52 l3 52 40 -52 c21 -29
47 -52 57 -52 16 0 18 10 18 90 0 83 -2 90 -19 90 -17 0 -20 -8 -23 -52 l-3
-52 -40 52 c-21 29 -47 52 -57 52 -16 0 -18 -10 -18 -90z"/>
<path d="M510 356 c0 -9 12 -16 28 -18 26 -3 27 -5 30 -75 3 -64 5 -73 22 -73
17 0 19 9 22 73 3 66 5 72 26 75 12 2 22 10 22 18 0 11 -17 14 -75 14 -58 0
-75 -3 -75 -14z"/>
<path d="M690 280 c0 -83 1 -90 20 -90 19 0 20 7 20 90 0 83 -1 90 -20 90 -19
0 -20 -7 -20 -90z"/>
<path d="M760 280 c0 -89 0 -90 25 -90 22 0 25 4 25 35 0 32 2 35 30 35 32 0
70 30 70 55 0 33 -38 55 -95 55 l-55 0 0 -90z m105 35 c0 -14 -8 -21 -27 -23
-24 -3 -28 0 -28 23 0 23 4 26 28 23 19 -2 27 -9 27 -23z"/>
<path d="M940 284 c-22 -47 -40 -88 -40 -90 0 -14 41 0 50 16 15 29 86 29 95
0 6 -18 45 -30 45 -14 0 4 -17 44 -37 90 -50 110 -62 110 -113 -2z m80 -16 c0
-4 -11 -8 -25 -8 -23 0 -24 2 -13 26 11 24 13 25 25 8 7 -10 13 -21 13 -26z"/>
<path d="M1070 356 c0 -9 12 -16 28 -18 26 -3 27 -5 30 -75 3 -64 5 -73 22
-73 17 0 19 9 22 73 3 66 5 72 26 75 12 2 22 10 22 18 0 11 -17 14 -75 14 -58
0 -75 -3 -75 -14z"/>
<path d="M1250 281 c0 -84 1 -91 20 -91 16 0 20 7 20 35 0 28 4 35 19 35 13 0
23 -11 31 -35 9 -27 17 -35 36 -35 21 0 23 2 13 27 -6 15 -14 33 -20 39 -6 7
-4 16 6 24 17 14 19 47 6 69 -6 9 -32 16 -70 19 l-61 4 0 -91z m95 34 c0 -14
-8 -21 -27 -23 -24 -3 -28 0 -28 23 0 23 4 26 28 23 19 -2 27 -9 27 -23z"/>
<path d="M1463 360 c-45 -19 -59 -99 -24 -141 28 -34 104 -34 132 0 24 29 25
92 2 120 -20 24 -77 35 -110 21z m71 -36 c31 -31 11 -104 -29 -104 -18 0 -45
39 -45 64 0 23 27 56 46 56 7 0 20 -7 28 -16z"/>
<path d="M1620 280 c0 -83 2 -90 19 -90 17 0 20 8 23 52 l3 52 40 -52 c21 -29
47 -52 57 -52 16 0 18 10 18 90 0 83 -2 90 -19 90 -17 0 -20 -8 -23 -52 l-3
-52 -40 52 c-21 29 -47 52 -57 52 -16 0 -18 -10 -18 -90z"/>
<path d="M1810 356 c0 -8 5 -18 10 -21 6 -3 10 -19 10 -34 0 -15 5 -32 11 -38
8 -8 8 -13 0 -17 -6 -4 -11 -16 -11 -27 0 -10 -5 -28 -12 -39 -16 -24 -6 -34
27 -26 20 5 25 12 25 38 0 17 8 40 17 51 17 18 17 19 0 28 -11 7 -17 22 -17
44 0 24 -6 38 -19 45 -27 14 -41 13 -41 -4z"/>
<path d="M1910 295 c0 -20 5 -25 25 -25 20 0 25 5 25 25 0 20 -5 25 -25 25
-20 0 -25 -5 -25 -25z"/>
<path d="M1910 215 c0 -14 5 -25 11 -25 6 0 9 -7 5 -15 -8 -22 12 -18 24 4 19
36 13 61 -15 61 -20 0 -25 -5 -25 -25z"/>
</g>
</svg>
